<svg width="150" height="48" viewBox="0 0 150 48" fill="none" xmlns="http://www.w3.org/2000/svg">
<g clip-path="url(#clip0_35:14003)">
<path d="M43.2775 0L11.126 5.22118L4.91962 28.4987L43.2775 0Z" fill="#FF3838"/>
<path d="M3.47185 33.8606L0 46.9572L41.5416 16.7025L22.2721 19.8928L3.47185 33.8606Z" fill="#3D3B38"/>
<path d="M80.0604 42.319C79.9408 42.1484 79.7726 42.0176 79.5778 41.9437C79.3774 41.8638 79.1635 41.8228 78.9478 41.8231C78.819 41.8232 78.6907 41.839 78.5657 41.87C78.4466 41.897 78.3332 41.9446 78.2306 42.0107C78.1333 42.0758 78.0529 42.1631 77.996 42.2654C77.9345 42.3783 77.9044 42.5056 77.9089 42.6341C77.9027 42.7275 77.9196 42.821 77.9582 42.9064C77.9968 42.9917 78.0558 43.0662 78.1301 43.1233C78.3006 43.2475 78.4879 43.3468 78.6864 43.4182C78.9075 43.4987 79.1488 43.5791 79.4102 43.6595C79.6646 43.7344 79.908 43.8426 80.1341 43.9812C80.3573 44.1189 80.5473 44.3043 80.6904 44.5241C80.8503 44.793 80.9272 45.1031 80.9116 45.4156C80.9192 45.7211 80.8549 46.0241 80.7239 46.3003C80.6029 46.5435 80.4288 46.7565 80.2145 46.9236C79.9941 47.0917 79.744 47.2168 79.4772 47.2922C79.1899 47.3768 78.892 47.4197 78.5925 47.4196C78.2043 47.4213 77.8188 47.3555 77.4531 47.2252C77.0866 47.0887 76.7628 46.8574 76.5148 46.555L77.366 45.7373C77.5021 45.9424 77.6892 46.1087 77.9089 46.2198C78.2496 46.3963 78.644 46.4393 79.0148 46.3405C79.141 46.306 79.2609 46.2517 79.37 46.1796C79.4765 46.1115 79.566 46.0198 79.6314 45.9115C79.6991 45.7982 79.734 45.6682 79.7319 45.5362C79.7366 45.4371 79.7191 45.3382 79.6809 45.2466C79.6426 45.155 79.5845 45.0731 79.5108 45.0067C79.3438 44.872 79.1559 44.7656 78.9545 44.6917C78.7333 44.6046 78.492 44.5241 78.2306 44.4437C77.9763 44.3715 77.7329 44.2655 77.5067 44.1287C77.2845 43.9954 77.0945 43.8146 76.9504 43.5992C76.7898 43.3306 76.7128 43.0203 76.7292 42.7078C76.7206 42.4135 76.79 42.1221 76.9303 41.8633C77.0614 41.6302 77.2422 41.4289 77.4598 41.2735C77.687 41.113 77.9413 40.9949 78.2105 40.9249C78.4969 40.8493 78.7923 40.8132 79.0885 40.8177C79.4182 40.816 79.746 40.8658 80.0604 40.9651C80.3747 41.0669 80.6629 41.2362 80.9049 41.4611L80.0604 42.319Z" fill="#3D3B38"/>
<path d="M84.3767 41.9839H82.433V40.9719H87.4531V41.9839H85.5094V47.2453H84.3767V41.9839Z" fill="#3D3B38"/>
<path d="M88.8673 44.1354C88.8631 43.6768 88.9473 43.2217 89.1153 42.7949C89.2687 42.4006 89.5039 42.0432 89.8054 41.7463C90.1069 41.4494 90.4679 41.2197 90.8646 41.0724C91.2934 40.9131 91.7477 40.8336 92.2051 40.8378C92.6612 40.8284 93.1152 40.9011 93.5456 41.0523C93.9447 41.1968 94.3081 41.4254 94.6113 41.7226C94.9042 42.0213 95.1323 42.3772 95.2815 42.7681C95.4499 43.1948 95.5341 43.65 95.5295 44.1086C95.5369 44.5675 95.4526 45.0233 95.2815 45.4491C95.13 45.8349 94.9021 46.186 94.6113 46.4813C94.3036 46.7727 93.9415 47.0005 93.5456 47.1515C93.1176 47.316 92.6636 47.4023 92.2051 47.4062C91.7477 47.4105 91.2934 47.331 90.8646 47.1716C90.4759 47.0234 90.1221 46.7962 89.8256 46.5043C89.5291 46.2124 89.2964 45.8623 89.1421 45.4759C88.9706 45.0502 88.8863 44.5943 88.8941 44.1354H88.8673ZM90.0804 44.0617C90.0763 44.3789 90.1285 44.6944 90.2346 44.9933C90.3314 45.2661 90.4818 45.5168 90.6769 45.7306C90.865 45.9372 91.093 46.1037 91.3472 46.2199C91.6286 46.3403 91.9325 46.3997 92.2386 46.3941C92.5469 46.3995 92.8528 46.3401 93.1367 46.2199C93.391 46.104 93.6191 45.9375 93.807 45.7306C94.0022 45.5169 94.1526 45.2662 94.2493 44.9933C94.3554 44.6944 94.4076 44.3789 94.4035 44.0617C94.4069 43.762 94.3546 43.4643 94.2493 43.1837C94.1499 42.9201 93.9996 42.6787 93.807 42.4732C93.6187 42.2701 93.3905 42.1081 93.1367 41.9974C92.8525 41.8783 92.5468 41.8189 92.2386 41.8231C91.9326 41.8187 91.629 41.878 91.3472 41.9974C91.0939 42.1091 90.8659 42.271 90.6769 42.4732C90.4844 42.6788 90.3341 42.9202 90.2346 43.1837C90.1293 43.4643 90.077 43.762 90.0804 44.0617Z" fill="#3D3B38"/>
<path d="M97.6675 40.9719H99.8659C100.163 40.9715 100.459 41.0007 100.751 41.059C101.018 41.1095 101.275 41.207 101.508 41.3472C101.728 41.4824 101.911 41.6716 102.038 41.8968C102.177 42.1676 102.244 42.4702 102.232 42.7748C102.245 43.1881 102.109 43.5923 101.85 43.9142C101.573 44.2322 101.184 44.4314 100.764 44.4705L102.446 47.2453H101.106L99.6381 44.5644H98.7935V47.2453H97.6675V40.9719ZM99.6783 43.6528C99.8391 43.6528 100 43.6528 100.161 43.6528C100.313 43.6393 100.462 43.6031 100.603 43.5456C100.734 43.4927 100.848 43.4045 100.932 43.2909C101.023 43.1472 101.068 42.9785 101.059 42.8083C101.065 42.652 101.023 42.4974 100.938 42.366C100.862 42.2536 100.755 42.1652 100.63 42.1113C100.498 42.0531 100.358 42.0147 100.214 41.9973C100.067 41.9891 99.9194 41.9891 99.7721 41.9973H98.7935V43.6327L99.6783 43.6528Z" fill="#3D3B38"/>
<path d="M104.323 40.9719H106.046L107.741 45.3686L109.45 40.9719H111.153V47.2453H110.08V42.0375H110.06L108.137 47.2453H107.346L105.416 42.0375H105.395V47.2453H104.323V40.9719Z" fill="#3D3B38"/>
<path d="M117.245 40.9719H118.968L120.664 45.3686L122.373 40.9719H124.082V47.2453H123.003V42.0375H122.983L121.059 47.2453H120.268L118.345 42.0375H118.324V47.2453H117.245V40.9719Z" fill="#3D3B38"/>
<path d="M126.508 40.9719H130.71V41.9839H127.634V43.5255H130.55V44.5308H127.634V46.2333H130.871V47.2453H126.508V40.9719Z" fill="#3D3B38"/>
<path d="M132.969 40.9718H135.469C135.881 40.9697 136.29 41.033 136.682 41.1595C137.062 41.2818 137.414 41.4802 137.714 41.7426C138.021 42.0133 138.266 42.3471 138.432 42.7211C138.619 43.1593 138.71 43.6323 138.7 44.1085C138.712 44.5914 138.607 45.0701 138.391 45.5026C138.197 45.8793 137.925 46.2106 137.594 46.4745C137.27 46.7308 136.902 46.9261 136.508 47.0509C136.131 47.1735 135.738 47.2368 135.342 47.2385H132.976L132.969 40.9718ZM134.94 46.2466C135.276 46.2478 135.612 46.2073 135.938 46.1259C136.232 46.054 136.51 45.9266 136.756 45.7506C136.992 45.5762 137.181 45.3459 137.306 45.0804C137.448 44.7742 137.516 44.4392 137.507 44.1018C137.514 43.7688 137.453 43.4378 137.326 43.13C137.219 42.8688 137.048 42.6384 136.83 42.4597C136.607 42.2855 136.352 42.1578 136.079 42.0844C135.769 42.0021 135.449 41.9616 135.127 41.9637H134.095V46.2466H134.94Z" fill="#3D3B38"/>
<path d="M141.863 40.9719H140.73V47.2386H141.863V40.9719Z" fill="#3D3B38"/>
<path d="M146.287 40.9719H147.265L150 47.2453H148.706L148.123 45.811H145.369L144.772 47.2453H143.505L146.287 40.9719ZM147.721 44.8526L146.743 42.3056L145.744 44.8526H147.721Z" fill="#3D3B38"/>
<path d="M80.2346 26.2802C79.8705 26.0592 79.5408 25.786 79.256 25.4692L79.0818 25.2547V25.5295C78.9812 30.0804 78.6126 30.3083 78.5389 30.3083C76.5282 30.3083 76.5282 15.4491 76.5282 6.57506V6.46112H56.4209V15.7306C56.4209 20.8646 55.992 26.689 52.7949 30.9786L52.7212 31.0791L52.8351 31.1327C53.2429 31.3321 53.6073 31.61 53.9075 31.9504L53.9879 32.0643L54.0751 31.9504C56.756 28.3512 58.0362 23.0429 58.0362 15.7239V8.04289H74.9933V9.61126C75.1341 22.6072 75.2279 31.9973 78.4316 31.9973C79.8324 31.9973 80.1475 30.5027 80.3217 26.4075V26.3472L80.2346 26.2802Z" fill="#3D3B38"/>
<path d="M70.7909 24.0952L70.744 24.0483L69.3633 24.5979L69.4639 24.7051C70.2453 25.5523 70.9728 26.4477 71.6421 27.3861L67.0242 27.614V23.0027H72.5805V14.9263H67.0242V11.87C67.1917 11.8398 67.3434 11.7521 67.4531 11.622C69.2732 11.332 71.0765 10.945 72.8553 10.4625C72.9331 10.4731 73.012 10.4731 73.0899 10.4625C73.1563 10.469 73.2234 10.4616 73.2868 10.4408C73.3503 10.4201 73.4087 10.3863 73.4585 10.3418L73.5389 10.2614L72.0242 9.04156H71.9705C68.8338 10.0536 63.0362 10.9383 58.6529 11.3941H58.4987L58.5724 11.5282C58.7611 11.8847 58.8987 12.266 58.9813 12.6609V12.7547H59.0751C60.9853 12.567 63.1703 12.2855 65.4022 11.9504V14.933H59.9062V23.0027H65.4022V27.6944C62.3794 27.8418 59.6113 27.9625 57.7682 28.0429H57.6408L58.311 29.9598H58.3915C58.4894 29.9411 58.5802 29.8954 58.6536 29.8279C58.727 29.7604 58.7801 29.6738 58.807 29.5778C62.1582 29.3968 67.3794 29.055 72.4263 28.6729C72.8952 29.4048 73.2947 30.179 73.6193 30.9853L73.6596 31.0858L75.047 30.4156V30.3284C74.4303 28.626 72.6743 26.0657 70.7641 24.0885L70.7909 24.0952ZM65.4022 21.5282H61.3808V16.3606H65.4022V21.5282ZM67.0242 16.3606H71.1126V21.5349H67.0242V16.3606Z" fill="#3D3B38"/>
<path d="M94.5577 5.86459C94.6922 5.88001 94.8282 5.85433 94.9479 5.79092C95.0675 5.72751 95.1652 5.62935 95.2279 5.50936L95.2748 5.40883L93.2641 4.73859V4.83242C91.5885 10.0737 88.8472 15.2681 86.1126 18.378L86.059 18.4383L86.1059 18.5053C86.3881 18.9097 86.6499 19.3281 86.8901 19.7587L86.9639 19.8927L87.0577 19.7788C88.3438 18.204 89.4898 16.5197 90.4826 14.7453V31.9973H92.0979V12.2922C92.2085 12.287 92.3155 12.2518 92.4076 12.1904C92.4997 12.129 92.5734 12.0437 92.6207 11.9437L92.6609 11.8364L92.1113 11.689C93.0294 9.79491 93.8395 7.85032 94.5376 5.86459" fill="#3D3B38"/>
<path d="M98.5992 25.3485L98.5389 25.3016L97.3123 26.1394L97.4196 26.2265C98.8827 27.4102 100.217 28.7446 101.401 30.2077L101.468 30.2949L102.714 29.2828L102.654 29.2024C101.443 27.7855 100.096 26.4903 98.6327 25.3351" fill="#3D3B38"/>
<path d="M109.631 21.756C109.721 21.7555 109.809 21.7347 109.889 21.6953C109.969 21.6558 110.039 21.5986 110.094 21.5281L111.548 21.4745C112.044 21.912 112.511 22.3799 112.949 22.8753L113.009 22.949L114.269 22.0643L114.196 21.9772C112.849 20.5969 111.359 19.3635 109.752 18.2976H112.433V10.3083H104.926V8.48523H113.773V7.04421H104.926V5.47584C105.044 5.4708 105.157 5.42651 105.247 5.35001C105.337 5.27351 105.398 5.16918 105.422 5.05359V4.93965L103.291 4.8056V7.04421H94.7921V8.48523H103.318V10.3083H96.0254V18.3043H103.311V20.3619C100.087 20.4155 96.9771 20.449 94.5374 20.449H94.3967L94.9664 22.2855H95.0535C95.1535 22.2679 95.2478 22.2265 95.3283 22.1646C95.4089 22.1028 95.4732 22.0224 95.516 21.9303C98.8672 21.8699 103.525 21.7493 108.043 21.6085V23.693H93.8806V25.1608H108.05V30.0536C108.05 30.5093 108.05 30.5093 106.414 30.5093C105.824 30.5093 105.04 30.5093 104.129 30.4691H103.264L103.411 30.8177C103.581 31.1731 103.718 31.5432 103.82 31.9236V32.004H103.887C106.924 32.004 107.842 32.004 108.532 31.7962C109.43 31.5281 109.604 30.9852 109.604 30.0804V25.1876H114.102V23.6796H109.604L109.631 21.756ZM104.94 11.5951H110.844V13.6528H104.94V11.5951ZM104.94 14.9464H110.844V17.0308H104.94V14.9464ZM104.94 18.2976H108.237L107.795 18.5724L107.922 18.6595C108.465 19.0348 109.263 19.6045 110.1 20.248C108.398 20.3016 106.676 20.3284 105 20.3552H104.933L104.94 18.2976ZM103.324 17.004H97.5937V14.9195H103.324V17.004ZM103.324 13.6528H97.5937V11.6018H103.324V13.6528Z" fill="#3D3B38"/>
<path d="M144.088 11.0858L138.975 11.9169L137.989 15.6166L144.088 11.0858Z" fill="#FF3838"/>
<path d="M149.859 29.5442C147.164 27.9161 144.832 25.7511 143.009 23.1836H149.765V21.6823H141.803V19.0013C141.903 18.9988 142 18.9686 142.084 18.9142C142.168 18.8598 142.236 18.7833 142.279 18.693H146.595V9.4839H149.859V7.95575H146.595V5.24127C146.714 5.23474 146.827 5.18908 146.916 5.11145C147.006 5.03383 147.068 4.92862 147.091 4.81232V4.69838L144.987 4.56433V7.94905H137.071V5.24127C137.189 5.2351 137.301 5.19041 137.391 5.11409C137.48 5.03778 137.542 4.93409 137.567 4.81902V4.70508L135.496 4.57103V7.95575H132.058V9.4839H135.496V18.6863H140.188V21.689H132.426V23.1836H138.921C137.061 25.8493 134.643 28.079 131.836 29.7185L131.709 29.7855L131.816 29.886C132.198 30.2286 132.538 30.6156 132.828 31.0389L132.882 31.126L132.969 31.0724C135.815 29.1665 138.266 26.7291 140.188 23.8941V31.937H141.803V23.8941C143.662 26.606 145.999 28.9567 148.7 30.8311L148.78 30.8847L148.834 30.8043C149.125 30.3836 149.472 30.0048 149.866 29.6783L149.993 29.5844L149.859 29.5442ZM145.007 17.2185H137.071V9.4839H145.007V17.2185Z" fill="#3D3B38"/>
<path d="M132.151 28.9209L133.164 27.5804L133.11 27.4799C132.153 26.3219 131.094 25.2519 129.946 24.2829C131.374 20.9316 132.252 16.7359 132.627 11.4745C132.694 11.3835 132.744 11.2814 132.775 11.1729V11.0791L131.83 10.811L131.562 10.8713H127.225C127.688 8.71315 128.07 6.84988 128.358 5.31503C128.68 5.31503 128.867 5.16757 128.901 4.93969V4.83916L126.823 4.54425L126.769 4.81235C126.428 6.65551 126.032 8.73996 125.583 10.8445H122.386V12.3995H125.241C124.571 15.4893 123.646 19.7185 122.828 22.614V22.6944L124.249 23.4384L124.625 22.0174C125.751 22.815 126.903 23.7131 127.976 24.6381C126.842 27.077 125.02 29.1317 122.735 30.5496L122.607 30.6233L122.721 30.7172C123.083 31.0513 123.392 31.4376 123.639 31.8633L123.693 31.9571L123.78 31.8968C126.123 30.3821 128.005 28.254 129.223 25.744C130.239 26.6948 131.18 27.7234 132.038 28.8204L132.151 28.9209ZM125.034 20.5362C125.643 18.0965 126.307 15.2279 126.91 12.4531H130.979C130.744 16.1253 129.956 19.7408 128.639 23.177C127.487 22.2189 126.283 21.324 125.034 20.496" fill="#3D3B38"/>
<path d="M54.6046 41.8231H52.6609V40.8177H57.681V41.8231H55.7373V47.0844H54.6046V41.8231Z" fill="#3D3B38"/>
<path d="M66.0724 40.8177H70.2748V41.8231H67.2051V43.3646H70.1139V44.3767H67.2051V46.0791H70.4357V47.0844H66.0724V40.8177Z" fill="#3D3B38"/>
<path d="M63.1165 40.7574V43.3177H59.886V40.7574H58.8002V47.1113H59.886V44.2896H63.1165V47.1113H64.209V40.7574H63.1165Z" fill="#3D3B38"/>
</g>
<defs>
<clipPath id="clip0_35:14003">
<rect width="150" height="47.4062" fill="white"/>
</clipPath>
</defs>
</svg>
